<?xml version="1.0" encoding="utf-8"?>
<!-- Generator: Adobe Illustrator 21.0.2, SVG Export Plug-In . SVG Version: 6.00 Build 0)  -->
<svg version="1.1"
	 id="レイヤー_1" inkscape:version="0.91 r13725" sodipodi:docname="kumoworks_logo.svg" xmlns:cc="http://creativecommons.org/ns#" xmlns:dc="http://purl.org/dc/elements/1.1/" xmlns:inkscape="http://www.inkscape.org/namespaces/inkscape" xmlns:rdf="http://www.w3.org/1999/02/22-rdf-syntax-ns#" xmlns:sodipodi="http://sodipodi.sourceforge.net/DTD/sodipodi-0.dtd" xmlns:svg="http://www.w3.org/2000/svg"
	 xmlns="http://www.w3.org/2000/svg" xmlns:xlink="http://www.w3.org/1999/xlink" x="0px" y="0px" width="258px" height="37.7px"
	 viewBox="0 0 258 37.7" style="enable-background:new 0 0 258 37.7;" xml:space="preserve">
<sodipodi:namedview  bordercolor="#666666" borderopacity="1" fit-margin-bottom="0" fit-margin-left="0" fit-margin-right="0" fit-margin-top="0" gridtolerance="10" guidetolerance="10" id="namedview33" inkscape:current-layer="レイヤー_1" inkscape:cx="-570.32673" inkscape:cy="-100.95001" inkscape:pageopacity="0" inkscape:pageshadow="2" inkscape:window-height="730" inkscape:window-maximized="0" inkscape:window-width="1571" inkscape:window-x="0" inkscape:window-y="0" inkscape:zoom="0.28031832" objecttolerance="10" pagecolor="#ffffff" showgrid="false">
	</sodipodi:namedview>
<g id="g13" transform="matrix(1.0097848,0,0,1.0097848,-145.20705,-285.46616)">
	<path id="path15" inkscape:connector-curvature="0" d="M150.3,299.9l12.3-14.1h8.2l-14.1,15.4l14.9,18H163l-11.9-15l-0.8,0.8v14.2
		h-6.5v-33.4h6.5L150.3,299.9L150.3,299.9z"/>
	<path id="path17" inkscape:connector-curvature="0" d="M178.8,297.5v12.3c0,1.1,0.1,2.7,1.3,3.8c0.8,0.7,2,1.1,3.1,1.1
		s2.4-0.4,3.1-1.1c1.2-1.1,1.3-2.6,1.3-3.8v-12.3h6.1v13.3c0,2-0.3,4.6-2.6,6.7c-2,1.8-5.2,2.5-7.9,2.5s-5.9-0.7-7.9-2.5
		c-2.4-2.1-2.6-4.7-2.6-6.7v-13.3H178.8L178.8,297.5z"/>
	<path id="path19" inkscape:connector-curvature="0" d="M199.5,297.5h6.1v2.5c2.3-2.9,5.2-3.2,6.5-3.2c4.6,0,6.3,2.9,6.9,4
		c1.1-1.7,3.2-4,7-4c3.4,0,5,1.6,5.9,2.7c1.4,1.9,1.5,3.7,1.5,6.1v13.6h-6.1v-11.8c0-2.6-0.6-3.7-1-4.3c-0.8-1-1.9-1.1-2.5-1.1
		c-1.6,0-2.7,0.8-3.4,1.9c-0.8,1.3-0.9,3.1-0.9,4.2v11.1h-6.1v-11.8c0-2.6-0.6-3.7-1-4.3c-0.8-1-1.9-1.1-2.5-1.1
		c-1.6,0-2.7,0.8-3.4,1.9c-0.8,1.3-0.9,3.1-0.9,4.2v11.1h-6.1V297.5L199.5,297.5z"/>
	<path id="path21" inkscape:connector-curvature="0" d="M259,299.8c2.2,2,3.7,5,3.7,8.5s-1.5,6.5-3.7,8.5c-1.9,1.7-4.6,3.1-8.8,3.1
		c-4.1,0-6.9-1.4-8.8-3.1c-2.1-2-3.6-5-3.6-8.5c0-3.6,1.5-6.6,3.6-8.5c1.9-1.7,4.7-3.1,8.8-3.1C254.4,296.8,257.2,298.1,259,299.8z
		 M256.4,308.3c0-3.4-2.6-6.2-6.1-6.2s-6.1,2.8-6.1,6.2c0,3.3,2.6,6.1,6.1,6.1S256.4,311.6,256.4,308.3z"/>
	<path id="path23" inkscape:connector-curvature="0" d="M281.1,319.1h-4.9l-11.6-33.4h6.9l7.5,22.7l8.2-23h3.6l7.7,23l8-22.7h6.9
		L301,319.1h-5l-7.3-21.2L281.1,319.1L281.1,319.1z"/>
	<path id="path25" inkscape:connector-curvature="0" d="M331.3,299.8c2.2,2,3.7,5,3.7,8.5s-1.5,6.5-3.7,8.5
		c-1.8,1.7-4.7,3.1-8.8,3.1c-4.1,0-6.9-1.4-8.8-3.1c-2.2-2-3.7-5-3.7-8.5c0-3.6,1.5-6.6,3.7-8.5c1.9-1.7,4.7-3.1,8.8-3.1
		C326.7,296.8,329.5,298.1,331.3,299.8z M328.7,308.3c0-3.4-2.6-6.2-6.1-6.2s-6.1,2.8-6.1,6.2c0,3.3,2.5,6.1,6.1,6.1
		C326.1,314.4,328.7,311.6,328.7,308.3z"/>
	<path id="path27" inkscape:connector-curvature="0" d="M339.7,297.5h6.1v3.3c0.9-1.9,2.3-2.8,2.7-3c0.9-0.6,2.1-1,3.6-1
		c1,0,1.9,0.3,2.6,0.5l-0.8,5.7c-0.8-0.6-1.6-0.8-2.8-0.8c-1.2,0-2.9,0.3-4.1,1.8c-1.1,1.5-1.2,3.3-1.2,4.8v10.4h-6.1L339.7,297.5
		L339.7,297.5z"/>
	<path id="path29" inkscape:connector-curvature="0" d="M363.8,282.7v22.7l8.1-7.9h7.9l-10.2,9.5l11,12.2h-8.1l-8.1-9.3l-0.6,0.6
		v8.7h-6.1v-36.5L363.8,282.7L363.8,282.7z"/>
	<path id="path31" inkscape:connector-curvature="0" d="M395.1,302.6c-1.5-1.4-2.9-1.5-3.6-1.5c-1.5,0-2.3,0.7-2.3,1.8
		c0,0.6,0.3,1.4,2,2l1.5,0.5c1.7,0.5,4.3,1.4,5.5,3.1c0.7,0.9,1.1,2.2,1.1,3.6c0,2-0.6,3.9-2.4,5.5s-3.9,2.3-6.5,2.3
		c-4.5,0-7-2.2-8.4-3.6l3.2-3.7c1.2,1.4,3,2.5,4.8,2.5c1.7,0,3-0.9,3-2.4c0-1.4-1.1-1.9-1.9-2.2l-1.4-0.5c-1.5-0.6-3.3-1.3-4.7-2.6
		c-1-1.1-1.6-2.4-1.6-4.2c0-2.1,1-3.9,2.3-4.9c1.7-1.4,3.9-1.6,5.7-1.6c1.6,0,4.2,0.2,6.9,2.3L395.1,302.6L395.1,302.6z"/>
</g>
</svg>
